<?xml version="1.0" standalone="no"?>
<!DOCTYPE svg PUBLIC "-//W3C//DTD SVG 20010904//EN"
 "http://www.w3.org/TR/2001/REC-SVG-20010904/DTD/svg10.dtd">
<svg version="1.0" xmlns="http://www.w3.org/2000/svg"
 width="512.000000pt" height="512.000000pt" viewBox="0 0 512.000000 512.000000"
 preserveAspectRatio="xMidYMid meet">

<g transform="translate(0.000000,512.000000) scale(0.100000,-0.100000)"
fill="black" stroke="none">
<path d="M2531 5018 c-10 -24 -107 -245 -216 -493 -108 -247 -268 -612 -355
-810 -87 -198 -246 -562 -355 -810 -258 -588 -516 -1176 -727 -1658 -93 -214
-168 -390 -166 -393 3 -2 833 -3 1845 -2 l1840 3 -334 805 c-496 1198 -686
1657 -890 2150 -101 245 -259 626 -350 848 l-167 402 -53 0 c-54 0 -54 0 -72
-42z m309 -1863 c210 -517 444 -1093 520 -1280 76 -187 177 -434 224 -549 47
-115 84 -211 83 -213 -2 -2 -577 -2 -1278 -1 l-1275 3 192 435 c105 239 329
750 499 1135 257 585 377 857 617 1405 17 39 21 42 28 25 4 -11 180 -443 390
-960z"/>
</g>
</svg>
